<svg width="120" height="26" viewBox="0 0 120 26" fill="none" xmlns="http://www.w3.org/2000/svg">
<path d="M26.3636 5.46875L29 0H16.0818L8.29033 17.4479L11.7009 25L15.4239 16.4062H21.3545L23.9909 10.6771H18.0832L20.3573 5.46875H26.3636Z" fill="white"/>
<path d="M0 0L6.64822 14.0625L13.1818 0H0Z" fill="white"/>
<path d="M35 26V0H51.1757V4.81088H39.9997V10.3293H48.9699V15.1401H39.9997V26H35Z" fill="white"/>
<path d="M53.0238 26V0H58.0236V26H53.0238Z" fill="white"/>
<path d="M70.6295 26C68.6321 26 66.8797 25.5696 65.3724 24.7088C63.8652 23.8481 62.6887 22.663 61.8432 21.1537C61.0099 19.6327 60.5933 17.8875 60.5933 15.9184C60.5933 13.9256 61.0222 12.1746 61.88 10.6653C62.7378 9.14422 63.9203 7.95918 65.4276 7.1102C66.9348 6.26123 68.6688 5.83674 70.6295 5.83674C72.627 5.83674 74.3793 6.26712 75.8866 7.12789C77.4061 7.98866 78.5887 9.17959 79.4342 10.7007C80.2798 12.21 80.7025 13.9492 80.7025 15.9184C80.7025 17.8993 80.2736 19.6503 79.4158 21.1714C78.5703 22.6807 77.3878 23.8658 75.8682 24.7265C74.3609 25.5755 72.6147 26 70.6295 26ZM70.6295 21.5075C72.2348 21.5075 73.4296 20.9887 74.2139 19.951C75.0104 18.9016 75.4087 17.5574 75.4087 15.9184C75.4087 14.2204 75.0043 12.8644 74.1955 11.8503C73.399 10.8363 72.2103 10.3293 70.6295 10.3293C69.5389 10.3293 68.6443 10.5651 67.9458 11.0367C67.2473 11.5084 66.7265 12.1628 66.3834 13C66.0525 13.8372 65.8871 14.81 65.8871 15.9184C65.8871 17.6281 66.2854 18.99 67.0819 20.0041C67.8907 21.0064 69.0732 21.5075 70.6295 21.5075Z" fill="white"/>
<path d="M82.9066 26V0H87.9799V15.5646L94.7075 6.36735H100.884L93.7149 15.9184L101.214 26H94.7075L87.9799 16.2721L88.0166 26H82.9066Z" fill="white"/>
<path d="M109.927 26C107.93 26 106.177 25.5696 104.67 24.7088C103.163 23.8481 101.986 22.663 101.141 21.1537C100.307 19.6327 99.8907 17.8875 99.8907 15.9184C99.8907 13.9256 100.32 12.1746 101.177 10.6653C102.035 9.14422 103.218 7.95918 104.725 7.1102C106.232 6.26123 107.966 5.83674 109.927 5.83674C111.924 5.83674 113.677 6.26712 115.184 7.12789C116.704 7.98866 117.886 9.17959 118.732 10.7007C119.577 12.21 120 13.9492 120 15.9184C120 17.8993 119.571 19.6503 118.713 21.1714C117.868 22.6807 116.685 23.8658 115.166 24.7265C113.658 25.5755 111.912 26 109.927 26ZM109.927 21.5075C111.532 21.5075 112.727 20.9887 113.511 19.951C114.308 18.9016 114.706 17.5574 114.706 15.9184C114.706 14.2204 114.302 12.8644 113.493 11.8503C112.696 10.8363 111.508 10.3293 109.927 10.3293C108.836 10.3293 107.942 10.5651 107.243 11.0367C106.545 11.5084 106.024 12.1628 105.681 13C105.35 13.8372 105.185 14.81 105.185 15.9184C105.185 17.6281 105.583 18.99 106.379 20.0041C107.188 21.0064 108.371 21.5075 109.927 21.5075Z" fill="white"/>
</svg>
