<svg width="26" height="27" viewBox="0 0 26 27" fill="none" xmlns="http://www.w3.org/2000/svg">
<path fill-rule="evenodd" clip-rule="evenodd" d="M23.3337 4.44405C21.329 1.74723 18.1185 0 14.5 0C10.9988 0 7.87968 1.63574 5.86511 4.18469C5.45866 4.42691 5.06778 4.69245 4.69432 4.97945C4.47536 5.14771 4.43426 5.46161 4.60252 5.68057C4.6534 5.74678 4.71759 5.79672 4.78845 5.82954C3.96612 7.37088 3.5 9.13101 3.5 11C3.5 17.0751 8.42487 22 14.5 22C17.4151 22 20.0653 20.8661 22.0337 19.0152C21.6824 19.7947 21.2428 20.5259 20.7276 21.1964C20.5594 21.4153 20.6005 21.7292 20.8194 21.8975C21.0384 22.0657 21.3523 22.0246 21.5206 21.8057C22.155 20.9801 22.6846 20.0694 23.0892 19.0936C23.195 18.8385 23.074 18.546 22.8189 18.4402C22.7594 18.4155 22.6978 18.4032 22.6371 18.402C24.4157 16.4479 25.5 13.8506 25.5 11C25.5 9.67569 25.266 8.40604 24.837 7.23015L17.0966 15.5235C16.819 15.8209 16.4326 15.9928 16.0259 15.9998C15.6191 16.0068 15.227 15.8483 14.9393 15.5607L10.9393 11.5607C10.3536 10.9749 10.3536 10.0251 10.9393 9.43934C11.5251 8.85355 12.4749 8.85355 13.0607 9.43934L15.9628 12.3415L23.3337 4.44405ZM3.18057 7.10252C3.39953 7.27078 3.44063 7.58469 3.27237 7.80365C2.69057 8.56073 2.20522 9.39547 1.83449 10.2895C1.72871 10.5445 1.43618 10.6656 1.1811 10.5598C0.926019 10.454 0.804985 10.1615 0.910763 9.90641C1.31543 8.93057 1.84502 8.0199 2.47945 7.19432C2.64771 6.97536 2.96161 6.93426 3.18057 7.10252ZM0.661874 12.5022C0.935697 12.5379 1.12872 12.7888 1.093 13.0627C1.03167 13.5329 1 14.0126 1 14.5C1 14.9874 1.03167 15.4671 1.093 15.9373C1.12872 16.2112 0.935697 16.4621 0.661874 16.4978C0.388052 16.5335 0.137119 16.3405 0.101402 16.0667C0.0344881 15.5537 0 15.0308 0 14.5C0 13.9692 0.0344881 13.4463 0.101401 12.9333C0.137119 12.6595 0.388051 12.4665 0.661874 12.5022ZM1.1811 18.4402C1.43618 18.3344 1.72871 18.4555 1.83449 18.7105C2.20522 19.6045 2.69058 20.4393 3.27237 21.1964C3.44063 21.4153 3.39953 21.7292 3.18057 21.8975C2.96161 22.0657 2.64771 22.0246 2.47945 21.8057C1.84502 20.9801 1.31543 20.0694 0.910763 19.0936C0.804986 18.8385 0.926019 18.546 1.1811 18.4402ZM19.3975 23.3194C19.5657 23.5384 19.5246 23.8523 19.3057 24.0206C18.4801 24.655 17.5694 25.1846 16.5936 25.5892C16.3385 25.695 16.046 25.574 15.9402 25.3189C15.8344 25.0638 15.9555 24.7713 16.2105 24.6655C17.1045 24.2948 17.9393 23.8094 18.6964 23.2276C18.9153 23.0594 19.2292 23.1005 19.3975 23.3194ZM4.60252 23.3194C4.77078 23.1005 5.08469 23.0594 5.30365 23.2276C6.06073 23.8094 6.89547 24.2948 7.78947 24.6655C8.04455 24.7713 8.16558 25.0638 8.0598 25.3189C7.95403 25.574 7.66149 25.695 7.40641 25.5892C6.43057 25.1846 5.5199 24.655 4.69432 24.0206C4.47536 23.8523 4.43426 23.5384 4.60252 23.3194ZM10.0022 25.8381C10.0379 25.5643 10.2888 25.3713 10.5627 25.407C11.0329 25.4683 11.5126 25.5 12 25.5C12.4874 25.5 12.9671 25.4683 13.4373 25.407C13.7112 25.3713 13.9621 25.5643 13.9978 25.8381C14.0335 26.1119 13.8405 26.3629 13.5667 26.3986C13.0537 26.4655 12.5308 26.5 12 26.5C11.4692 26.5 10.9463 26.4655 10.4333 26.3986C10.1595 26.3629 9.96648 26.1119 10.0022 25.8381Z" fill="white"/>
</svg>
